<?xml version="1.0" encoding="utf-8"?>
<!-- Generator: Adobe Illustrator 15.0.0, SVG Export Plug-In . SVG Version: 6.00 Build 0)  -->
<!DOCTYPE svg PUBLIC "-//W3C//DTD SVG 1.1//EN" "http://www.w3.org/Graphics/SVG/1.1/DTD/svg11.dtd">
<svg version="1.1" id="图层_1" xmlns="http://www.w3.org/2000/svg" xmlns:xlink="http://www.w3.org/1999/xlink" x="0px" y="0px"
	 width="582.61px" height="119.66px" viewBox="5.381 8.292 582.61 119.66" enable-background="new 5.381 8.292 582.61 119.66"
	 xml:space="preserve">
<g>
	<g id="layer1" transform="translate(-120.42857,-704.73007)">
		<g id="g89722" transform="matrix(2.921609,0,0,-2.9216091,178.43733,723.33071)">
			<path id="path89724" fill="#E4007F" d="M19.881-8.149c-0.319-0.802-1.289-1.458-2.156-1.458H-14.21
				c-0.866,0-1.291,0.646-0.946,1.435l0.744,1.682c0.348,0.793,1.342,1.438,2.21,1.438h31.739c0.868,0,1.317-0.657,0.998-1.458
				L19.881-8.149z M17.139-15.096c-0.319-0.802-1.173-1.841-1.897-2.314L6.19-23.287c-0.727-0.471-2.03-0.859-2.898-0.859H-10.14
				c-0.868,0-1.317,0.656-0.996,1.456l0.67,1.684c0.319,0.798,1.288,1.454,2.156,1.454H8.392c0.868,0,2.062,0.322,2.655,0.711
				c0.594,0.392,1.239,1.115,1.435,1.607c0.194,0.496-0.353,0.897-1.222,0.897h-28.173c-0.868,0-1.316,0.655-0.998,1.456
				l0.672,1.682c0.318,0.8,1.287,1.458,2.155,1.458h31.981c0.868,0,1.316-0.658,0.998-1.458L17.139-15.096L17.139-15.096z"/>
		</g>
		<g id="g89726" transform="matrix(2.921609,0,0,-2.9216091,231.15396,731.6012)">
			<path id="path89728" fill="#E4007F" d="M36.879-10.777c-0.319-0.801-1.167-1.849-1.882-2.337L24.174-20.43
				c-0.715-0.486-2.01-0.884-2.881-0.884h-4.67c-0.87,0-1.317,0.656-0.998,1.456l0.678,1.704c0.321,0.802,1.29,1.454,2.158,1.454
				h7.733c0.866,0,2.167,0.393,2.887,0.872l1.377,0.913c0.722,0.478,1.573,1.525,1.892,2.327l1.709,4.293
				c0.32,0.799-0.13,1.455-0.996,1.455H4.866c-0.87,0-1.307,0.652-0.979,1.45l0.716,1.722C4.933-2.873,5.912-2.22,6.78-2.22h31.927
				c0.868,0,1.314-0.659,0.998-1.46L36.879-10.777z"/>
		</g>
		<g id="g89730" transform="matrix(2.921609,0,0,-2.9216091,291.36103,723.33071)">
			<path id="path89732" fill="#E4007F" d="M56.291-8.149c-0.319-0.802-1.287-1.458-2.156-1.458H22.201
				c-0.867,0-1.294,0.646-0.946,1.435l0.744,1.682c0.347,0.793,1.342,1.438,2.21,1.438h31.739c0.867,0,1.317-0.657,0.997-1.458
				L56.291-8.149z M53.549-15.096c-0.32-0.802-1.175-1.841-1.9-2.314l-9.051-5.877c-0.727-0.471-2.029-0.859-2.898-0.859H26.269
				c-0.868,0-1.316,0.656-0.996,1.456l0.668,1.684c0.32,0.798,1.29,1.454,2.158,1.454h16.703c0.866,0,2.062,0.322,2.655,0.711
				c0.592,0.392,1.237,1.115,1.434,1.607c0.196,0.496-0.355,0.897-1.222,0.897H19.498c-0.87,0-1.317,0.655-0.998,1.456l0.67,1.682
				c0.321,0.8,1.289,1.458,2.158,1.458H53.31c0.866,0,1.316-0.658,0.996-1.458L53.549-15.096L53.549-15.096z"/>
		</g>
		<g id="g89734" transform="matrix(2.921609,0,0,-2.9216091,347.65723,723.43035)">
			<path id="path89736" fill="#E4007F" d="M74.443-8.181c-0.318-0.8-1.288-1.456-2.155-1.456h-7.733
				c-0.867,0-2.166-0.391-2.886-0.874l-1.293-0.862c-0.72-0.482-1.571-1.53-1.89-2.329l-3.563-8.955
				c-0.321-0.799-1.292-1.456-2.158-1.456H52.11c-0.866,0-1.317,0.658-0.997,1.456l2.156,5.415c0.319,0.8-0.007,1.061-0.724,0.575
				l-2.439-1.647c-0.719-0.484-2.014-0.882-2.882-0.882h-10.77c-0.868,0-1.297,0.651-0.955,1.441l0.764,1.78
				c0.34,0.795,1.328,1.44,2.196,1.44h13.727c0.869,0,2.072,0.506,2.674,1.124l7.093,7.265c0.602,0.619,1.806,1.126,2.671,1.126
				h9.503c0.867,0,1.315-0.657,0.996-1.458L74.443-8.181z"/>
		</g>
		<g id="g89738" transform="matrix(2.921609,0,0,-2.9216091,400.6599,731.6012)">
			<path id="path89740" fill="#E4007F" d="M91.532-10.777c-0.321-0.801-1.167-1.849-1.884-2.337L78.827-20.43
				c-0.717-0.486-2.012-0.884-2.881-0.884h-4.673c-0.868,0-1.317,0.656-0.995,1.456l0.677,1.704
				c0.319,0.802,1.291,1.454,2.155,1.454h7.734c0.867,0,2.167,0.393,2.89,0.872l1.376,0.913c0.721,0.478,1.574,1.525,1.892,2.327
				l1.707,4.293c0.322,0.799-0.128,1.455-0.996,1.455H59.518c-0.866,0-1.305,0.652-0.976,1.45l0.717,1.722
				c0.33,0.795,1.309,1.448,2.177,1.448H93.36c0.869,0,1.317-0.659,0.998-1.46L91.532-10.777z"/>
		</g>
		<g id="g89742" transform="matrix(2.921609,0,0,-2.9216091,414.9778,732.9393)">
			<path id="path89744" fill="#E4007F" d="M96.149-11.202c-0.319-0.803-1.29-1.458-2.158-1.458h-1.283
				c-0.869,0-1.318,0.656-0.998,1.458l2.579,6.478c0.318,0.8,1.17,1.846,1.892,2.324l3.403,2.249
				c0.72,0.478,1.053,0.214,0.732-0.588L96.149-11.202z M92.885-19.401c-0.321-0.8-1.292-1.456-2.158-1.456h-1.285
				c-0.868,0-1.315,0.656-0.997,1.456l0.928,2.33c0.319,0.801,1.288,1.455,2.156,1.455h1.286c0.866,0,1.316-0.655,0.998-1.455
				L92.885-19.401z"/>
		</g>
		<g id="g89746" transform="matrix(2.921609,0,0,-2.9216091,236.3734,709.01688)">
			<path id="path89748" fill="#E4007F" d="M38.561-3.6c-0.318-0.8-1.171-1.844-1.893-2.32l-2.622-1.722
				c-0.724-0.472-1.054-0.21-0.736,0.592l1.655,4.163c0.32,0.801,1.289,1.456,2.157,1.456h0.724c0.867,0,1.317-0.656,0.999-1.456
				L38.561-3.6z"/>
		</g>
		<g id="g89750" transform="matrix(2.921609,0,0,-2.9216091,244.66902,709.01688)">
			<path id="path89752" fill="#E4007F" d="M41.236-3.6c-0.319-0.8-1.173-1.844-1.895-2.316l-2.646-1.73
				c-0.724-0.473-1.054-0.206-0.734,0.596l1.657,4.163c0.319,0.801,1.289,1.456,2.156,1.456h0.748c0.868,0,1.316-0.656,0.998-1.456
				L41.236-3.6z"/>
		</g>
		<g id="g89754" transform="matrix(2.921609,0,0,-2.9216091,405.76103,709.01688)">
			<path id="path89756" fill="#E4007F" d="M93.176-3.6c-0.318-0.8-1.171-1.844-1.895-2.32l-2.619-1.722
				c-0.725-0.472-1.057-0.21-0.738,0.592l1.658,4.163c0.317,0.801,1.29,1.456,2.156,1.456h0.725c0.87,0,1.317-0.656,0.998-1.456
				L93.176-3.6z"/>
		</g>
		<g id="g89758" transform="matrix(2.921609,0,0,-2.9216091,414.05663,709.01688)">
			<path id="path89760" fill="#E4007F" d="M95.852-3.6c-0.318-0.8-1.173-1.844-1.895-2.316l-2.646-1.73
				c-0.725-0.473-1.056-0.206-0.736,0.596l1.657,4.163c0.321,0.801,1.292,1.456,2.158,1.456h0.748c0.868,0,1.317-0.656,0.998-1.456
				L95.852-3.6z"/>
		</g>
	</g>
	<g>
		<path fill="#E4007F" d="M248.921,102.434c1.52-0.238,3.058-0.039,4.584-0.097c0.678,0.017,1.466-0.006,2,0.479
			c0.487,0.906,0.843,1.967,1.762,2.531c1.012-0.017,1.746-1.053,1.662-2.017c-0.306-0.929-0.724-1.849-1.343-2.608
			c-0.611-0.555-1.383-0.955-2.191-1.113c-2.305-0.24-4.649-0.313-6.952,0.014c-1.361,0.207-2.414,1.23-3.172,2.334
			c-0.624,0.959-0.761,2.154-0.706,3.277c0.04,0.888-0.048,1.779,0.026,2.664c0.228,1.095,0.699,2.186,1.527,2.949
			c0.408,0.389,0.915,0.635,1.371,0.959c0.772,0.142,1.516,0.455,2.311,0.435c1.43,0,2.86-0.015,4.291-0.003
			c0.844-0.012,1.366,0.755,1.833,1.354c0.202,1.227,0.126,2.479,0.063,3.713c0.035,0.723-0.522,1.291-1.108,1.603
			c-1.112,0.588-2.39,0.265-3.585,0.358c-1.172-0.033-2.608,0.301-3.514-0.668c-0.405-0.746-0.456-1.701-1.219-2.226
			c-0.505,0.049-1.145-0.187-1.535,0.247c-0.423,0.516-0.568,1.261-0.327,1.895c0.281,1.248,0.974,2.529,2.204,3.016
			c1.47,0.761,3.161,0.568,4.753,0.588c0.927-0.016,1.859,0.035,2.79-0.025c1.086-0.175,2.121-0.677,2.952-1.41
			c0.592-0.543,0.9-1.31,1.297-1.998c0.235-1.675,0.316-3.384,0.117-5.066c-0.252-2.023-1.875-3.672-3.794-4.153
			c-0.926-0.157-1.866-0.024-2.796-0.067c-1.071-0.041-2.171,0.164-3.212-0.181c-0.733-0.144-1.41-0.762-1.471-1.544
			c-0.279-1.307-0.154-2.663,0.061-3.967C247.871,103.145,248.382,102.721,248.921,102.434z"/>
		<path fill="#E4007F" d="M347.967,119.294c-0.533-0.036-0.438-0.66-0.453-1.046c-0.014-5.789,0.008-11.578-0.008-17.367
			c0.049-0.529-0.271-1.039-0.736-1.264c-0.783-0.146-1.582-0.283-2.383-0.217c-1.164,0.117-2.408-0.166-3.498,0.377
			c-0.686,0.306-0.436,1.201-0.391,1.8c0.678,1.099,2.088,0.771,3.159,0.756c0.376,0.033,1.034-0.076,1.09,0.452
			c0.004,5.222,0.01,10.445-0.005,15.667c0,0.315,0.031,0.799-0.376,0.86c-1.161,0.176-2.347-0.403-3.474,0.109
			c-0.301,0.549-0.578,1.192-0.343,1.823c0.159,0.532,0.696,0.896,1.247,0.858c2.905,0.025,5.813,0.017,8.719,0.004
			c1.287,0.074,1.764-1.905,0.863-2.649C350.272,119.145,349.098,119.387,347.967,119.294z"/>
		<path fill="#E4007F" d="M373.663,103.555c0.698,0.141,1.397,0.395,2.121,0.322c0.86-0.368,1.526-1.289,1.506-2.246
			c-0.115-0.663-0.288-1.402-0.841-1.834c-0.563-0.525-1.403-0.457-2.098-0.304c-0.408,0.09-0.884,0.144-1.147,0.513
			c-0.345,0.831-0.608,1.801-0.278,2.678C373.098,103.018,373.225,103.505,373.663,103.555z"/>
		<path fill="#E4007F" d="M435.821,119.346c-1.044-0.22-2.133,0.217-3.154-0.129c-0.033-6.111-0.003-12.227-0.015-18.342
			c0.069-0.548-0.386-0.957-0.799-1.219c-0.763-0.162-1.547-0.352-2.331-0.247c-1.31,0.157-2.803-0.288-3.938,0.59
			c-0.008,0.584-0.105,1.205,0.08,1.762c0.728,0.873,1.938,0.614,2.926,0.55c0.427,0,1.043-0.008,1.235,0.479
			c0.121,1.184-0.006,2.382,0.021,3.572c0,4.209,0.019,8.428-0.022,12.636c-0.276,0.494-0.952,0.31-1.414,0.315
			c-0.796-0.142-1.597-0.102-2.379,0.086c-0.145,0.16-0.287,0.317-0.43,0.479c-0.015,0.53-0.01,1.063-0.005,1.592
			c0.36,0.348,0.805,0.658,1.329,0.639c2.845,0.024,5.693,0.002,8.541,0.014c0.907,0.076,1.622-0.957,1.446-1.813
			C436.773,119.811,436.381,119.309,435.821,119.346z"/>
		<path fill="#E4007F" d="M523.659,99.604c-0.534-0.287-1.167-0.266-1.74-0.133c-0.488,0.094-1.075,0.221-1.28,0.741
			c-0.237,0.779-0.421,1.642-0.133,2.433c0.123,0.366,0.276,0.853,0.718,0.912c0.636,0.154,1.27,0.396,1.934,0.334
			c0.838-0.231,1.474-0.986,1.658-1.834C524.894,101.128,524.541,100.027,523.659,99.604z"/>
		<path fill="#E4007F" d="M293.638,106.193c-1.993-0.092-3.985-0.029-5.977-0.025c-0.818-0.046-1.558,0.482-2.378,0.355
			c-0.072-1.246,0.021-2.494-0.002-3.742c-0.006-0.749,0.116-1.516-0.078-2.252c-0.122-0.406-0.472-0.664-0.754-0.951
			c-0.645-0.254-1.402-0.037-1.771,0.564c-0.313,0.773-0.253,1.627-0.231,2.441c-0.006,5.667,0.014,11.333-0.008,17
			c-0.024,0.67,0.122,1.323,0.224,1.982c0.143,0.162,0.284,0.32,0.427,0.482c0.605,0.016,1.363,0.188,1.789-0.381
			c0.546-0.906,0.387-2.018,0.4-3.029c0.005-2.209-0.027-4.421,0.003-6.629c-0.018-1.334,0.958-2.586,2.185-2.994
			c1.807-0.037,3.619-0.015,5.429-0.012c0.375-0.013,0.592,0.378,0.873,0.576c0.025,0.566,0.148,1.124,0.172,1.691
			c-0.026,2.578,0.059,5.158-0.002,7.735c-0.009,1.035-0.061,2.222,0.675,3.04c0.578-0.004,1.271,0.186,1.729-0.281
			c0.319-0.469,0.444-1.058,0.441-1.623c-0.007-2.894,0.002-5.787,0-8.683c-0.007-0.867,0.078-1.769-0.243-2.59
			C295.978,107.643,294.975,106.512,293.638,106.193z"/>
		<path fill="#E4007F" d="M399.928,99.764c-0.597-0.511-1.593-0.266-1.984,0.383c-0.34,1.244-0.188,2.537-0.202,3.806
			c0.013,0.71,0.536,1.917-0.409,2.196c-2.23,0.025-4.467,0.017-6.699-0.016c-0.941-0.072-1.879,0.176-2.635,0.754
			c-1.27,0.813-1.823,2.362-1.836,3.829c0.01,2.396-0.01,4.789,0.004,7.183c0.191,1.348,0.732,2.777,1.963,3.474
			c0.63,0.288,1.221,0.769,1.95,0.726c2.043,0.055,4.091,0.002,6.138,0.028c0.646,0.035,1.23-0.453,1.891-0.249
			c0.723,0.186,1.646,0.439,2.181-0.268c0.289-1.031,0.435-2.102,0.321-3.172c0.011-5.662-0.032-11.326,0.047-16.989
			C400.659,100.816,400.443,100.146,399.928,99.764z M397.753,116.945c-0.06,0.652,0.011,1.475-0.565,1.914
			c-0.84,0.574-1.89,0.384-2.838,0.397c-1.17,0.021-2.343,0.015-3.511,0.063c-0.565,0.031-1.163-0.206-1.491-0.684
			c-0.367-0.757-0.396-1.627-0.373-2.453c0.096-2.178-0.186-4.384,0.269-6.533c0.178-0.303,0.438-0.683,0.83-0.646
			c2.278-0.005,4.56-0.025,6.836,0.014c0.192,0.162,0.39,0.318,0.593,0.472c0.102,0.719,0.292,1.433,0.255,2.165
			C397.654,113.416,397.704,115.182,397.753,116.945z"/>
		<path fill="#E4007F" d="M582.144,116.984c-0.831,0.16-1.018,1.095-1.555,1.623c-0.918,1.004-2.638,1.031-3.651,0.175
			c-0.614-1.28-0.337-2.743-0.369-4.111c-0.077-1.575,0.095-3.157-0.11-4.726c-0.148-0.428,0.258-0.67,0.501-0.941
			c1.895-0.031,3.798,0.045,5.69-0.037c0.533-0.313,1.122-0.799,1.135-1.482c0.081-0.605-0.541-0.928-0.891-1.313
			c-1.884-0.057-3.771,0.021-5.652-0.004c-0.282,0.021-0.563-0.125-0.69-0.38c-0.095-0.878,0.076-1.761,0.007-2.64
			c-0.059-0.834,0.149-1.682-0.067-2.502c-0.199-0.578-0.651-1.142-1.295-1.188c-0.625-0.04-1.071,0.479-1.456,0.903
			c-0.08,1.777,0.014,3.557,0.005,5.334c-0.81,0.727-2.083,0.156-2.778,1.061c-0.151,0.452-0.147,0.969-0.006,1.421
			c0.569,0.722,1.462,0.947,2.338,0.826c0.144,0.136,0.289,0.269,0.44,0.401c-0.032,2.953-0.017,5.908-0.006,8.861
			c-0.021,0.457,0.269,0.834,0.388,1.258c0.527,1.343,1.818,2.199,3.151,2.56c1.636,0.076,3.403,0.196,4.842-0.754
			c0.73-0.552,1.147-1.388,1.561-2.19C584.057,118.152,583.193,116.921,582.144,116.984z"/>
		<path fill="#E4007F" d="M275.954,116.893c-0.787,0.097-1.133,0.914-1.548,1.493c-0.293,0.617-0.959,0.978-1.625,0.925
			c-1.731-0.125-3.465,0.043-5.196-0.063c-0.658-0.062-1.416-0.356-1.667-1.039c-0.191-0.521-0.146-1.095-0.175-1.644
			c0.042-1.7,0.032-3.402-0.016-5.104c0.072-0.883,0.126-1.949,0.967-2.453c2.376-0.02,4.753-0.003,7.132-0.008
			c0.739,0.617,0.901,1.795,1.828,2.188c0.818,0.099,1.426-0.703,1.735-1.379c-0.303-0.932-0.504-1.994-1.289-2.654
			c-0.492-0.387-1.037-0.709-1.618-0.938c-1.492-0.112-2.994-0.04-4.487-0.059c-1.374,0.021-2.752-0.06-4.125,0.054
			c-0.568,0.234-1.038,0.66-1.511,1.045c-0.995,0.834-1.314,2.202-1.419,3.449c-0.018,1.945,0.019,3.895-0.007,5.842
			c0.004,1.053,0.002,2.162,0.495,3.119c0.706,1.586,2.467,2.542,4.149,2.455c1.922-0.02,3.843,0.029,5.765-0.023
			c0.967-0.111,2.003-0.355,2.719-1.074c0.652-0.722,1.213-1.599,1.331-2.584C277.172,117.749,276.584,117.204,275.954,116.893z"/>
		<path fill="#E4007F" d="M315.419,107.841c-0.39-0.69-1.127-1.032-1.771-1.427c-0.588-0.395-1.328-0.223-1.991-0.271
			c-2.179,0.056-4.356-0.047-6.532,0.055c-1.384,0.291-2.604,1.416-2.977,2.808c-0.51,1.589-0.229,3.29-0.332,4.931
			c0.154,1.93-0.344,3.996,0.55,5.803c0.645,1.453,2.194,2.293,3.716,2.383c2.046-0.003,4.094,0.003,6.139-0.002
			c1.564-0.069,2.821-1.186,3.664-2.439c0.157-0.777,0.415-1.544,0.396-2.347c-0.047-2.397,0.015-4.796-0.022-7.19
			C316.124,109.334,315.833,108.545,315.419,107.841z M313.068,118.779c-0.396,0.345-0.867,0.604-1.403,0.553
			c-1.742-0.07-3.489,0.029-5.233-0.053c-0.481-0.012-0.928-0.213-1.369-0.383c-0.367-0.582-0.302-1.299-0.326-1.957
			c0.029-2.207-0.006-4.416,0.021-6.623c-0.041-0.633,0.418-1.412,1.116-1.346c2.227,0.016,4.458-0.023,6.686,0.018
			c0.688,0.253,0.825,1.091,0.904,1.738c0.07,2.073-0.021,4.147,0.028,6.225C313.545,117.598,313.256,118.182,313.068,118.779z"/>
		<path fill="#E4007F" d="M334.957,108.02c-0.477-0.896-1.411-1.408-2.281-1.818c-2.416-0.121-4.838,0.001-7.254-0.057
			c-0.97-0.093-1.869,0.381-2.626,0.944c-0.828,0.63-1.183,1.679-1.446,2.646c-0.06,2.714-0.007,5.434-0.027,8.146
			c-0.055,0.643,0.313,1.192,0.427,1.803c0.358,0.508,0.644,1.11,1.174,1.465c0.753,0.506,1.586,0.982,2.521,0.961
			c1.976,0.025,3.949,0,5.926,0.014c2.281,0.035,4.423-2.094,4.293-4.432c0.015-2.45,0.043-4.902,0.013-7.356
			C335.693,109.505,335.389,108.71,334.957,108.02z M332.856,117.708c-0.094,0.579-0.383,1.271-1.004,1.424
			c-0.451,0.162-0.937,0.136-1.404,0.146c-1.608-0.027-3.221,0.027-4.831,0.035c-0.99-0.033-1.497-1.112-1.494-1.994
			c-0.004-2.082-0.007-4.162,0.005-6.243c0.014-0.738,0.098-1.642,0.818-2.036c2.136-0.105,4.283-0.01,6.426-0.047
			c0.345,0.018,0.814-0.079,1.021,0.287c0.248,0.504,0.491,1.035,0.469,1.617C332.859,113.167,332.874,115.438,332.856,117.708z"/>
		<path fill="#E4007F" d="M380.625,119.382c-0.868-0.174-1.759-0.096-2.637-0.112c-0.381,0.028-0.646-0.268-0.924-0.469
			c-0.094-1.066,0.211-2.119,0.121-3.188c0.035-2.699-0.104-5.399-0.054-8.094c0.004-0.545-0.174-1.064-0.655-1.352
			c-1.426-0.021-2.859,0.066-4.276-0.126c-0.468,0.007-0.923,0.149-1.386,0.149c-0.285,0.242-0.597,0.483-0.729,0.85
			c-0.269,0.52,0.133,1.039,0.315,1.511c0.341,0.181,0.648,0.491,1.066,0.444c0.855,0.013,1.717,0,2.574,0.002
			c0.188,0.288,0.512,0.561,0.449,0.945c-0.045,0.822-0.238,1.634-0.154,2.461c0.152,1.759-0.088,3.521,0.08,5.275
			c0.046,0.521,0.031,1.144-0.413,1.493c-1.063,0.295-2.208-0.172-3.257,0.231c-0.249,0.111-0.41,0.344-0.537,0.572
			c-0.646,0.877,0.277,2.213,1.29,2.129c2.099,0.026,4.202,0.002,6.304,0.01c0.965-0.012,1.938,0.046,2.899-0.069
			c0.415-0.401,0.799-0.894,0.806-1.507C381.407,120.045,381.118,119.552,380.625,119.382z"/>
		<path fill="#E4007F" d="M418.731,107.275c-0.531-0.395-1.088-0.768-1.682-1.06c-1.354-0.151-2.721-0.032-4.08-0.063
			c-1.48,0.033-2.967-0.074-4.439,0.068c-0.698,0.303-1.307,0.805-1.846,1.34c-0.668,0.821-1.02,1.893-1.011,2.955
			c0.005,2.076,0.021,4.153-0.004,6.231c0.026,0.955-0.08,1.979,0.394,2.851c0.685,1.596,2.414,2.575,4.101,2.521
			c1.739-0.004,3.476-0.005,5.212,0c2.327,0.21,4.62-1.835,4.633-4.227c-0.001-2.653,0.021-5.307-0.015-7.957
			C419.751,108.986,419.434,107.986,418.731,107.275z M416.835,118.62c-0.376,0.501-1.037,0.716-1.64,0.666
			c-1.616-0.101-3.238,0.046-4.858-0.05c-0.498-0.016-1.007-0.159-1.416-0.452c-0.491-0.47-0.419-1.222-0.427-1.843
			c0.029-2.149-0.021-4.301,0.017-6.448c-0.024-0.626,0.354-1.117,0.813-1.484c2.339-0.014,4.678-0.003,7.019-0.006
			c0.234,0.238,0.582,0.417,0.654,0.774c0.367,1.856,0.148,3.759,0.181,5.636C417.139,116.482,417.406,117.646,416.835,118.62z"/>
		<path fill="#E4007F" d="M469.661,109.938c-0.164-1.437-1.043-2.805-2.345-3.436c-0.543-0.45-1.263-0.314-1.906-0.352
			c-1.433-0.008-2.861,0.018-4.29,0c-1.052,0.016-2.115-0.084-3.142,0.176c-0.736-0.012-1.464-0.23-2.21-0.172
			c-0.282,0.522-0.431,1.109-0.402,1.707c0,6.109-0.006,12.221,0,18.332c0.033,0.576,0.079,1.308,0.59,1.673
			c0.478,0.067,0.97,0.077,1.447,0c0.459-0.317,0.741-0.909,0.743-1.472c0.102-1.271-0.055-2.543,0.029-3.811
			c0.021-0.365,0.328-0.645,0.696-0.55c2.171,0.153,4.353,0.054,6.529,0.086c1.975,0.032,3.783-1.544,4.204-3.476
			c0.085-0.69,0.055-1.391,0.075-2.082C469.641,114.354,469.74,112.145,469.661,109.938z M465.775,119.168
			c-0.608,0.131-1.239,0.087-1.857,0.093c-1.482-0.03-2.971,0.093-4.451,0c-0.505,0.017-0.97-0.354-1.083-0.849
			c-0.307-0.701-0.204-1.479-0.215-2.221c-0.01-1.446,0.025-2.896-0.012-4.342c-0.031-0.697,0.104-1.383,0.22-2.064
			c0.025-0.361,0.392-0.532,0.606-0.776c2.394-0.018,4.786-0.005,7.182-0.008c0.777,0.876,0.708,2.118,0.701,3.217
			c-0.013,1.702-0.005,3.403,0.009,5.103C466.883,118.061,466.57,118.986,465.775,119.168z"/>
		<path fill="#E4007F" d="M486.072,106.225c-1.175-0.177-2.362-0.057-3.545-0.07c-0.434,0.023-0.904-0.038-1.277,0.226
			c-0.847,0.511-1.966,0.394-2.746-0.187c-0.987-0.051-1.994-0.155-2.97,0.053c-0.546,0.313-1.06,1.053-0.69,1.686
			c0.403,1.068,1.727,1.116,2.681,1.072c0.521-0.093,0.87,0.455,0.856,0.928c-0.133,2.889-0.124,5.793-0.013,8.687
			c-0.013,0.272-0.211,0.546-0.48,0.599c-0.596,0.121-1.212,0.059-1.803,0.196c-0.485,0.456-0.8,1.231-0.424,1.856
			c0.203,0.703,1.019,0.836,1.638,0.85c2.235-0.001,4.471,0.014,6.707-0.008c0.607,0.037,1.111-0.42,1.406-0.922
			c0.469-0.754-0.228-1.773-1.036-1.842c-0.943-0.201-1.922,0.137-2.855-0.102c-0.667-0.467-0.363-1.436-0.363-2.131
			c0.019-1.825,0.051-3.655-0.038-5.48c0.104-0.923,0.096-2.025,0.907-2.631c1.103,0.003,2.206-0.018,3.31,0.006
			c0.482-0.02,0.707,0.557,0.868,0.939c0.017,1.031,0.321,2.02,0.43,3.039c0.135,0.117,0.277,0.234,0.419,0.351
			c0.729,0.081,1.644,0.024,1.937-0.801c0.347-1.282,0.277-2.703-0.281-3.916C488.338,107.398,487.185,106.659,486.072,106.225z"/>
		<path fill="#E4007F" d="M506.696,108.141c-0.769-1.265-2.193-2.105-3.675-2.008c-2.359,0.075-4.724-0.053-7.079,0.075
			c-1.169,0.41-2.15,1.368-2.687,2.494c-0.494,1.752-0.22,3.594-0.289,5.388c0.078,1.762-0.177,3.559,0.251,5.285
			c0.283,0.65,0.755,1.202,1.266,1.68c0.547,0.568,1.338,0.772,2.05,1.038c2.1,0.063,4.205,0.007,6.308,0.026
			c1.422,0.057,2.8-0.711,3.682-1.817c0.699-1.102,0.861-2.464,0.722-3.747c0.021-2.088,0.029-4.174,0.057-6.26
			C507.303,109.525,506.926,108.85,506.696,108.141z M504.229,118.535c-0.351,0.604-1.113,0.767-1.752,0.753
			c-1.486-0.06-2.973,0.006-4.46,0c-0.631-0.032-1.35-0.039-1.846-0.504c-0.356-0.532-0.404-1.22-0.396-1.845
			c0.013-1.893-0.009-3.785,0.007-5.674c0.079-0.814,0.003-1.787,0.805-2.255c2.279-0.022,4.563-0.021,6.839-0.006
			c0.393-0.03,0.605,0.36,0.878,0.579c0.256,1.813,0.143,3.643,0.163,5.464C504.441,116.211,504.632,117.42,504.229,118.535z"/>
		<path fill="#E4007F" d="M523.749,109.188c0.011-1.028,0.194-2.326-0.74-3.021c-1.47-0.007-2.948,0.053-4.415-0.105
			c-0.427,0.032-0.845,0.115-1.269,0.141c-0.188,0.138-0.37,0.277-0.548,0.418c-0.34,0.84-0.151,1.972,0.776,2.314
			c0.896,0.164,1.831,0.012,2.745,0.072c0.326-0.046,0.501,0.283,0.734,0.457c0.012,0.73-0.057,1.457-0.103,2.184
			c0.062,3.908-0.002,7.813,0.026,11.722c-0.055,0.588-0.064,1.419-0.696,1.674c-0.914,0.194-1.854,0.002-2.781,0.063
			c-0.772-0.022-1.752,0.144-2.285-0.563c-0.521-0.664,0.059-1.776-0.757-2.231c-0.46-0.184-0.986-0.056-1.469-0.08
			c-0.163,0.149-0.32,0.304-0.476,0.453c-0.423,1.037-0.278,2.157,0.006,3.207c0.573,0.959,1.456,1.803,2.568,2.023
			c1.925,0.042,3.854,0.059,5.78-0.007c1.686-0.345,2.903-2.039,2.896-3.763c0.056-2.467-0.017-4.934,0.025-7.401
			C523.717,114.225,523.829,111.705,523.749,109.188z"/>
		<path fill="#E4007F" d="M544.955,108.178c-0.464-0.945-1.414-1.445-2.254-1.99c-2.742-0.052-5.488-0.035-8.229-0.012
			c-1.431,0.315-2.534,1.54-3.089,2.877c-0.187,1.488-0.144,2.99-0.128,4.487c0.06,1.771-0.075,3.551,0.099,5.317
			c0.029,0.668,0.605,1.104,0.86,1.686c0.649,0.811,1.64,1.316,2.634,1.549c1.428,0.063,2.859,0.012,4.29,0.025
			c1.461-0.016,3.011,0.15,4.368-0.514c1.075-0.703,1.954-1.846,2.105-3.162c-0.066-0.782-0.77-1.348-1.461-1.578
			c-0.725,0.046-1.024,0.824-1.356,1.363c-0.384,0.709-1.199,1.106-1.979,1.076c-1.731-0.031-3.464,0.021-5.193-0.012
			c-0.715-0.014-1.344-0.539-1.479-1.254c-0.08-0.666-0.119-1.35-0.008-2.014c0.146-0.48,0.683-0.508,1.101-0.486
			c2.541,0.093,5.091,0.025,7.637,0.063c0.798,0.043,1.566-0.223,2.329-0.445c0.592-0.416,0.425-1.178,0.44-1.803
			C545.596,111.617,545.897,109.736,544.955,108.178z M542.787,110.695c-0.144,0.66-0.139,1.354-0.398,1.982
			c-0.745,0.342-1.545-0.035-2.314,0.016c-1.615,0.097-3.23-0.021-4.84,0.078c-0.553,0.08-1.392-0.213-1.256-0.91
			c0.13-0.881-0.073-1.926,0.584-2.631c0.177-0.299,0.554-0.25,0.851-0.256c2.177,0.008,4.354-0.009,6.535,0.008
			C542.352,109.463,542.908,109.999,542.787,110.695z"/>
		<path fill="#E4007F" d="M563.355,117.002c-1.04,0.287-1.054,1.696-2.032,2.064c-0.512,0.315-1.13,0.26-1.697,0.231
			c-0.813-0.062-1.627,0.013-2.437-0.021c-0.917-0.028-1.861,0.156-2.753-0.123c-0.811-0.275-0.891-1.28-0.937-2.018
			c-0.008-1.89,0.009-3.783,0.004-5.673c-0.017-0.873,0.051-1.866,0.771-2.463c2.36,0.003,4.724-0.008,7.086,0.005
			c0.44,0.415,0.873,0.852,1.135,1.416c0.283,0.59,1.039,0.956,1.63,0.574c0.714-0.299,1.028-1.092,0.859-1.835
			c-0.438-1.004-1.03-1.952-1.953-2.565c-0.471-0.13-0.878-0.479-1.387-0.422c-2.484-0.031-4.972-0.013-7.454,0.004
			c-0.56-0.043-1.063,0.211-1.51,0.52c-1.077,0.802-1.997,2.006-1.97,3.424c0.016,2.66-0.017,5.322,0.025,7.984
			c-0.025,1.309,0.813,2.429,1.767,3.221c0.558,0.271,1.11,0.59,1.71,0.764c2.103,0.068,4.21,0.008,6.313,0.032
			c0.961,0.039,1.92-0.254,2.76-0.722c0.807-0.539,1.232-1.452,1.675-2.291C565.264,118.125,564.436,116.824,563.355,117.002z"/>
	</g>
</g>
</svg>
